<svg version="1.1" viewBox="0 0 1000 936" width="250" height="234" xmlns="http://www.w3.org/2000/svg">
  <path transform="translate(476,31)" d="m0 0h23l31 2 35 4 36 8 35 11 30 12 23 11 22 12 19 12 24 16 4 3-1 2-16-7-19-10-29-11-27-8-24-5-27-4-24-2h-49l-27 3-29 5-32 8-27 9-25 11-22 11-24 15-13 9-19 14-11 9-15 14-14 14-7 8-11 12-12 16-12 17-15 24-8 15-12 27-10 28-8 27-5 23-4 26-3 40 1 28 3 29 5 30 7 28 13 38 13 29 9 17 12 19 8 12 12 16 11 14 9 9 7 8 22 22 11 9 18 14 21 14 20 12 23 12 18 8 30 11 27 7 25 5 30 4 12 1h48l32-3 29-5 21-5 36-12 21-9 19-9 6-3 2 1-18 13-19 12-35 20-24 11-29 11-25 8-28 7-21 4-39 4-18 1h-25l-31-2-39-6-40-10-36-12-19-8-26-13-23-13-19-12-14-11-16-13-10-9-11-10-8-7-9-8-7-8-7-7-9-11-10-12-13-18-13-21-14-25-11-22-9-23-10-30-8-31-5-25-4-29-1-18v-42l1-20 5-36 6-27 8-29 10-30 9-20 8-17 13-23 8-14 10-15 9-12 14-18 14-15 22-22 8-7 12-11 14-11 18-14 19-12 25-14 30-15 27-10 25-8 28-7 34-6 25-3z" />
  <path transform="translate(565,119)" d="m0 0h36l27 2 26 4 24 6 19 6 26 10 24 11 17 9 15 10 14 10 16 13 14 12 8 8 2 1v2h2l7 8 12 13 11 14 12 17 13 22 14 27 8 19 10 30 8 37 3 22 1 16v41l-2 23-6 34-8 30-11 29-16 32-15 25-13 18-9 11-11 12-9 10-8 8-8 7-14 12-12 9-14 10-21 13-16 8-20 9-27 10-20 6-20 5-35 5-17 1h-39l-23-2-25-4-21-5-27-9-26-11-23-11-27-16-13-9-5-5 6 1 19 10 20 8 21 7 29 6 22 3 13 1h40l23-2 24-4 25-7 22-8 18-8 16-8 11-6 22-14 16-12 10-9 8-7 10-9 11-12 11-14 13-17 14-23 14-29 10-27 6-23 6-31 2-17 1-30-2-31-5-30-7-28-9-25-12-26-11-20-10-15-16-21-14-15-7-8-8-7-12-11-19-14-17-11-21-12-21-10-26-10-21-6-12-3-19-3-29-2h-27l-29 2-33 6-25 7-22 8-23 12-6 1 3-3 29-19 19-11 28-13 24-9 21-7 24-5 28-4z" />
  <path transform="translate(512,340)" d="m0 0h101l16 2 15 5 15 8 10 8 8 9 7 11 5 12 3 13v29l-3 15-5 14-6 10-10 13-11 9-13 6-17 5-13 2-42 1-1 79-1 1h-58l-1-1v-247zm59 57v56l5 1h25l16-2 7-4 5-6 3-8 1-12-2-11-4-6-8-5-6-2-7-1z"  />
  <path transform="translate(329,340)" d="m0 0h119l1 2v125l-1 52-3 20-4 13-8 15-9 11-12 9-12 5-12 3h-28l-17-3-16-6-19-10-12-9 8-16 7-12 6-12 6-10 5 1 13 8 14 8 5 2 6 1h10l6-4 4-7 1-2 1-10 1-117h-60l-1-1v-55z"  />
</svg>
